<?xml version="1.0" encoding="utf-8"?>
<!-- Generator: Adobe Illustrator 24.0.1, SVG Export Plug-In . SVG Version: 6.00 Build 0)  -->
<svg version="1.1" id="Layer_1" xmlns="http://www.w3.org/2000/svg" xmlns:xlink="http://www.w3.org/1999/xlink" x="0px" y="0px"
	 viewBox="0 0 1200 1000" style="enable-background:new 0 0 1200 1000;" xml:space="preserve">
<style type="text/css">
	.st0{fill:#FFFFFF;}
	.st1{fill:#EEF9FF;}
	.st2{fill:#9652A0;}
	.st3{fill:#ED4F62;}
	.st4{fill:#199AD3;}
	.st5{fill:none;stroke:#FF0000;stroke-width:0.25;stroke-miterlimit:10;}
	.st6{fill:#E63D5A;}
	.st7{fill:#AF4186;}
	.st8{fill:#F3096F;}
	.st9{fill:#EE4A63;}
	.st10{fill:#EE4D6F;}
	.st11{fill:#3C8CC5;}
	.st12{fill:#21A5D8;}
	.st13{fill:#7D50A2;}
	.st14{fill:#845EAC;}
	.st15{fill:#E11288;}
	.st16{fill:#6D61AB;}
	.st17{fill:#536FB0;}
	.st18{fill:#8A5AA4;}
	.st19{fill:#D51890;}
	.st20{fill:#A33F99;}
	.st21{fill:#C33C93;}
	.st22{fill:#8F539A;}
	.st23{fill:#D11B8A;}
	.st24{fill:#9F4396;}
	.st25{fill:#984FA1;}
	.st26{fill:#D6167F;}
	.st27{fill:#C42E92;}
	.st28{fill:#ED0785;}
	.st29{fill:#7A4CA7;}
	.st30{fill:#9F4C9D;}
	.st31{fill:#E8188A;}
	.st32{fill:#EE0987;}
	.st33{fill:#E53594;}
	.st34{fill:#EC0F80;}
	.st35{fill:#D42694;}
	.st36{fill:#F6D81D;}
	.st37{fill:#F48246;}
	.st38{fill:#E38F2D;}
	.st39{fill:#E7505C;}
	.st40{fill:#EE2170;}
	.st41{fill:#E73766;}
	.st42{fill:#E01270;}
	.st43{fill:#DA2B7A;}
	.st44{fill:#F57B43;}
	.st45{fill:#F8645A;}
	.st46{fill:#EE206B;}
	.st47{fill:#E6309B;}
	.st48{fill:#BE3396;}
	.st49{fill:#E54658;}
	.st50{fill:#E21F65;}
	.st51{fill:#E4156F;}
	.st52{fill:#F49236;}
	.st53{fill:#F87B50;}
	.st54{fill:#FDB744;}
	.st55{fill:#AE359E;}
	.st56{fill:#E2198E;}
	.st57{fill:#FFFFFF;stroke:#FF0000;stroke-width:0.25;stroke-miterlimit:10;}
	.st58{fill:#EC1163;}
	.st59{font-family:'Helvetica-Bold';}
	.st60{font-size:85.5193px;}
	.st61{fill:#40C1F2;}
</style>
<rect class="st0" width="1200" height="1000"/>
<g>
	<g>
		<g>
			<path class="st1" d="M807.45,702.24c-2.07,2.83-4.19,5.61-6.38,8.35H398.93c-2.19-2.74-4.31-5.52-6.38-8.35H807.45z"/>
			<path class="st0" d="M856.98,550.56c0,12.03-0.83,23.87-2.43,35.46c-0.38,2.76-0.81,5.52-1.28,8.26
				c-0.08-0.02-0.18-0.03-0.26-0.04c-0.6-0.09-1.2-0.17-1.81-0.22c-0.35-0.04-0.7-0.07-1.05-0.1c-0.33-0.04-0.68-0.06-1.01-0.08
				h-0.04c-0.02-0.01-0.05-0.01-0.07,0c-0.58-0.05-1.16-0.07-1.73-0.09c-0.02,0-0.04-0.01-0.06,0c-0.62-0.03-1.23-0.04-1.86-0.04
				H354.62c-0.62,0-1.23,0.01-1.86,0.04c-0.02-0.01-0.04,0-0.06,0c-0.58,0.02-1.16,0.05-1.73,0.09c-0.03-0.01-0.06-0.01-0.07,0
				h-0.04c-0.33,0.03-0.68,0.05-1.01,0.08c-0.35,0.03-0.7,0.06-1.05,0.1c-0.6,0.06-1.21,0.14-1.81,0.22
				c-0.08,0.01-0.18,0.02-0.26,0.04c-0.47-2.74-0.9-5.49-1.28-8.26c-1.6-11.59-2.43-23.42-2.43-35.46
				c0-141.92,115.05-256.98,256.98-256.98S856.98,408.64,856.98,550.56z"/>
			<path d="M397.87,702.24h-10.53c2.02,2.82,4.1,5.6,6.24,8.35h10.85C402.19,707.85,400,705.07,397.87,702.24z M784.66,365.9
				c-49.33-49.33-114.91-76.49-184.66-76.49s-135.33,27.16-184.66,76.49c-49.33,49.33-76.49,114.91-76.49,184.66
				c0,12.22,0.83,24.31,2.48,36.21c0.38,2.76,0.81,5.53,1.28,8.28c0.34-0.08,0.69-0.16,1.02-0.22c0.2-0.05,0.4-0.08,0.59-0.12
				c0.27-0.06,0.54-0.1,0.81-0.15c0.43-0.08,0.86-0.16,1.29-0.21c0.14-0.03,0.28-0.05,0.42-0.06c0.08-0.02,0.18-0.03,0.26-0.04
				c0.6-0.08,1.21-0.17,1.81-0.22c0.35-0.04,0.7-0.07,1.05-0.1c0.33-0.04,0.68-0.06,1.01-0.08h0.04c-0.47-2.75-0.9-5.5-1.29-8.28
				c-1.59-11.44-2.41-23.12-2.41-34.99c0-139.4,113.4-252.8,252.8-252.8s252.8,113.4,252.8,252.8c0,11.87-0.83,23.55-2.41,34.99
				c-0.39,2.77-0.82,5.53-1.29,8.28h0.04c0.33,0.03,0.68,0.05,1.01,0.08c0.35,0.03,0.7,0.06,1.05,0.1c0.61,0.06,1.21,0.13,1.81,0.22
				c0.08,0.01,0.18,0.02,0.26,0.04c0.14,0.02,0.28,0.04,0.42,0.06c0.44,0.06,0.86,0.14,1.29,0.21c0.27,0.05,0.54,0.09,0.81,0.15
				c0.19,0.04,0.39,0.07,0.59,0.12c0.33,0.06,0.68,0.14,1.02,0.22c0.47-2.75,0.9-5.51,1.28-8.28c1.64-11.9,2.48-23.99,2.48-36.21
				C861.15,480.81,833.99,415.23,784.66,365.9z M802.13,702.24c-2.13,2.83-4.32,5.61-6.57,8.35h10.85c2.14-2.75,4.22-5.53,6.24-8.35
				H802.13z"/>
		</g>
		<g>
			<path class="st2" d="M577.5,554.73c-3.97,0-7.4,2.26-9.09,5.57c-0.71,1.39-1.11,2.97-1.11,4.64c0,2.19,0.69,4.21,1.86,5.86
				l13-14.95C580.76,555.13,579.18,554.73,577.5,554.73z"/>
			<path class="st3" d="M649.53,556.03c-1.76,0.97-3.2,2.47-4.12,4.27c-0.71,1.39-1.11,2.97-1.11,4.64c0,5.41,4.2,9.83,9.52,10.19
				l4.22-8.44L649.53,556.03z"/>
			<path class="st4" d="M423.5,382.64c-1.67,0-3.17,0.68-4.27,1.76c-1.09,1.09-1.76,2.6-1.76,4.27c0,3.33,2.7,6.03,6.03,6.03h40.98
				l7.46-12.06H423.5z"/>
			<polygon class="st5" points="625.28,465.91 625.28,465.91 625.28,465.91 			"/>
			<polygon class="st6" points="656.7,492.2 651.36,495.66 645.75,494.54 646.15,494.43 618.18,468.65 624.46,466.23 			"/>
			<path class="st7" d="M561.73,548.24l-17.81,2.54l-10.86-21.42l15.22,2.64l7.33,0.67c-1.93,1.61-3.15,4.04-3.15,6.75
				c0,2.43,0.98,4.64,2.58,6.23c1.6,1.6,3.8,2.58,6.23,2.58H561.73z"/>
			<polygon class="st8" points="593.87,471.63 584.54,510.73 577.04,500.46 550.12,469.88 550.14,469.85 			"/>
			<path class="st9" d="M641.39,560.3c1.06-3.01,3.14-5.55,5.81-7.2l-3.89-4.86h-41.22l-8.77,12.06H641.39z"/>
			<path class="st2" d="M548.74,560.3h15.64c0.99-2.83,2.89-5.24,5.33-6.89l-25.27-1.58L548.74,560.3z"/>
			<polygon class="st10" points="615.54,530.61 599.04,530.61 585.77,512.42 607.19,505.57 			"/>
			<polygon class="st11" points="486.93,412.49 476.47,411.54 479.82,398.09 			"/>
			<polygon class="st12" points="479.82,398.09 476.47,411.54 476.38,411.87 475.43,415.69 473,410.9 464.79,394.7 464.48,394.7 
				471.94,382.64 472.21,382.64 478.77,395.95 			"/>
			<polygon class="st13" points="513.49,437.84 511.25,437.36 511.13,437.33 511.12,437.33 511.12,437.32 510.41,437.18 
				510.4,437.17 505.38,433.44 486.54,419.42 476.38,411.87 476.47,411.54 486.93,412.49 489.37,417.43 507.66,417.43 509.76,424.8 
				511.34,430.33 			"/>
			<polygon class="st14" points="515.55,494.83 503.94,471.94 512.33,471.18 			"/>
			<polygon class="st15" points="550.14,469.85 550.02,469.77 549.4,469.31 536.22,459.64 514.73,443.88 514.72,443.87 
				512.38,438.9 512.56,438.77 512.19,438.49 512.18,438.49 512.1,438.31 511.97,438.34 510.41,437.18 511.12,437.32 511.12,437.33 
				511.13,437.33 511.25,437.36 516.77,438.75 526.02,441.09 526.7,440.96 530.65,441.09 			"/>
			<polygon class="st16" points="510.4,437.17 506.16,436.24 483.32,431.26 479.72,424.16 475.43,415.69 476.38,411.87 
				486.54,419.42 505.38,433.44 			"/>
			<polygon class="st17" points="512.56,438.77 512.38,438.9 507.81,442.17 493.89,452.11 491.28,446.97 483.32,431.26 
				506.16,436.24 510.4,437.17 510.41,437.18 511.97,438.34 512.18,438.49 512.19,438.49 			"/>
			<polygon class="st5" points="517.56,429.81 517.54,430.07 517.35,429.83 			"/>
			<polygon class="st18" points="526.94,469.85 518.61,470.61 512.33,471.18 503.94,471.94 502.37,468.84 500.67,465.49 
				500.67,465.48 493.89,452.11 507.81,442.17 512.38,438.9 514.72,443.87 514.73,443.88 524.76,465.21 			"/>
			<polygon class="st5" points="512.18,438.49 511.97,438.34 512.1,438.31 			"/>
			<polygon class="st19" points="579.82,430.89 550.14,469.85 530.65,441.09 526.7,440.96 565.44,433.61 			"/>
			<polygon class="st5" points="520.44,429.57 520.44,429.57 520.44,429.57 			"/>
			<polygon class="st20" points="526.02,441.09 516.77,438.75 511.25,437.36 513.49,437.84 511.34,430.33 509.76,424.8 
				507.66,417.43 507.81,417.43 517.35,429.83 517.54,430.07 519.32,432.38 525.65,440.62 525.89,440.93 			"/>
			<polygon class="st21" points="579.82,430.89 565.44,433.61 526.7,440.96 526.02,441.09 526.21,440.94 541.67,429.26 
				557.33,417.43 568.75,417.43 572.83,422.38 			"/>
			<polygon class="st22" points="557.33,417.43 541.67,429.26 526.21,440.94 526.02,441.09 525.89,440.93 525.65,440.62 
				519.32,432.38 517.54,430.07 517.56,429.81 517.35,429.83 507.81,417.43 			"/>
			<polygon class="st23" points="550.14,469.85 550.12,469.88 531.58,502.32 529.91,490.64 526.94,469.85 			"/>
			<polygon class="st24" points="531.58,502.32 528.39,501.19 528.36,501.18 516.68,497.06 515.55,494.83 512.33,471.18 
				518.61,470.61 526.94,469.85 529.91,490.64 			"/>
			<polygon class="st24" points="550.14,469.85 526.94,469.85 524.76,465.21 514.73,443.88 536.22,459.64 549.4,469.31 
				550.02,469.77 			"/>
			<polygon class="st25" points="582.07,417.43 580.81,424.99 579.82,430.89 572.83,422.38 568.75,417.43 			"/>
			<polygon class="st26" points="612.12,455.11 607.99,459.25 605.7,457.15 598.84,450.83 593.87,471.63 550.14,469.85 
				579.82,430.89 610.23,453.7 			"/>
			<polygon class="st27" points="577.04,500.46 548.28,532.01 532.29,503.58 532.29,503.57 531.58,502.32 			"/>
			<polygon class="st28" points="577.04,500.46 531.58,502.32 550.12,469.88 			"/>
			<polygon class="st29" points="531.58,502.32 531.1,502.85 523.76,511.03 522.2,507.94 519.34,502.32 516.68,497.06 
				528.36,501.18 528.39,501.19 			"/>
			<polygon class="st30" points="548.28,532.01 533.06,529.36 523.76,511.03 531.1,502.85 531.58,502.32 532.29,503.57 
				532.29,503.58 			"/>
			<path class="st31" d="M599.04,530.61h-37.78c-2.15,0-4.13,0.77-5.66,2.06l-7.33-0.67l28.76-31.54l7.5,10.27l1.23,1.69
				L599.04,530.61z"/>
			<polygon class="st32" points="694.59,417.43 693,433.67 693,451.1 665.17,417.43 			"/>
			<path class="st5" d="M720.72,451.37c-0.03,0.06-0.06,0.13-0.09,0.19l-0.14-0.19L720.72,451.37z"/>
			<path class="st33" d="M715.67,423l-9.68,12.52l-7.24-18.09h2.22c3.75,0,7.28,0.93,10.37,2.58
				C712.9,420.83,714.36,421.84,715.67,423z"/>
			<path class="st34" d="M723.15,439.62c0,2.02-0.2,4.04-0.61,6c-0.41,1.97-1.02,3.9-1.82,5.75l-0.23,0.01l0.14,0.19
				c-0.08,0.19-0.17,0.39-0.26,0.58l-2.36,5.06l-3.14-5.66l-8.89-16.02l17.03,1.71c0,0.01,0,0.01,0,0.01
				C723.11,438.02,723.15,438.82,723.15,439.62z"/>
			<path class="st35" d="M723.02,437.23l-17.03-1.71l9.68-12.52c3.63,3.2,6.19,7.57,7.1,12.52
				C722.88,436.09,722.97,436.67,723.02,437.23z"/>
			<path class="st36" d="M697.37,501.43l-9.53,20.42c-2.23,4.78-7.03,7.84-12.31,7.84h-0.99c0.26-0.16,0.54-0.32,0.83-0.46
				c3.71-1.86,4.64-6.49,4.64-6.49v-17.67L697.37,501.43z"/>
			<path class="st37" d="M680.02,522.73c0,0-0.93,4.64-4.64,6.49c-0.3,0.15-0.58,0.31-0.83,0.46h-43.23l-5.61-17.39l25.6-16.61
				l0.06-0.04l5.34-3.46l0.19,0.16l0.28,0.22l15.6,20.6L680.02,522.73z"/>
			<path class="st38" d="M680.02,505.1v17.63l-7.24-9.56l-15.6-20.6l0.58,0.46c0,0,0.22-0.03,0.6-0.07l21.61,12.11l-0.29,0.06
				L680.02,505.1z"/>
			<polygon class="st5" points="680.02,505.06 680.02,505.1 679.96,505.07 			"/>
			<polygon class="st5" points="680.02,505.1 679.67,505.13 679.96,505.07 			"/>
			<polygon class="st39" points="651.36,495.66 651.3,495.7 625.7,512.3 622.03,500.93 645.54,494.59 645.56,494.59 645.75,494.54 
				645.75,494.54 			"/>
			<polygon class="st40" points="657.44,454.05 657.29,454.05 614.68,453.23 633.73,418.05 657.25,453.77 			"/>
			<polygon class="st41" points="718.01,457.2 707.51,479.71 694.03,454.18 693.11,452.43 693,452.22 693.45,451.65 698.62,445.01 
				705.99,435.52 714.88,451.55 			"/>
			<polygon class="st42" points="705.99,435.52 698.62,445.01 693.45,451.65 693,452.22 693,433.67 694.59,417.43 698.75,417.43 			
				"/>
			<polygon class="st43" points="707.51,479.71 707.29,480.18 687.89,463.5 680.02,456.73 680.02,455.7 687.5,453.83 693.11,452.43 
				694.03,454.18 			"/>
			<polygon class="st44" points="707.29,480.18 697.37,501.43 680.02,505.06 680.02,456.73 687.89,463.5 			"/>
			<polygon class="st5" points="679.38,456.02 679.31,456.13 679.2,456.03 			"/>
			<polygon class="st5" points="656.9,492.36 656.7,492.2 656.82,492.11 			"/>
			<polygon class="st5" points="657.75,493.04 657.17,492.58 656.82,492.11 			"/>
			<polygon class="st5" points="657.17,492.58 656.9,492.36 656.82,492.11 			"/>
			<polygon class="st45" points="680.02,456.73 680.02,505.06 679.96,505.07 658.35,492.97 656.82,492.11 679.31,456.13 			"/>
			<polygon class="st43" points="680.02,455.96 680.02,456.73 679.31,456.13 679.38,456.02 			"/>
			<path class="st5" d="M658.35,492.97c-0.38,0.05-0.6,0.07-0.6,0.07l-0.93-0.93L658.35,492.97z"/>
			<polygon class="st46" points="693.11,452.43 687.5,453.83 680.02,455.7 680.02,455.01 679.5,455.83 679.09,455.93 679.2,456.03 
				658.8,457.71 637.73,462.86 657.36,454.63 657.72,454.48 658.68,454.08 657.44,454.05 657.25,453.77 652.75,417.43 
				665.17,417.43 693,451.1 693,452.22 			"/>
			<polygon class="st46" points="679.5,455.83 679.38,456.02 679.2,456.03 679.09,455.93 			"/>
			<polygon class="st46" points="680.02,455.01 680.02,455.7 679.5,455.83 			"/>
			<polygon class="st43" points="680.02,455.7 680.02,455.96 679.38,456.02 679.5,455.83 			"/>
			<polygon class="st47" points="633.63,417.9 633.73,418.05 614.68,453.23 613.22,455.93 612.41,454.39 611.78,453.18 
				602.11,434.62 593.13,417.43 633.82,417.43 			"/>
			<polygon class="st48" points="613.22,455.93 612.12,455.11 610.23,453.7 579.82,430.89 580.81,424.99 582.07,417.43 
				593.13,417.43 602.11,434.62 611.78,453.18 612.41,454.39 			"/>
			<polygon class="st49" points="679.31,456.13 656.82,492.11 656.7,492.2 624.46,466.23 625.28,465.92 637.73,462.86 658.8,457.71 
				679.2,456.03 			"/>
			<polygon class="st5" points="625.28,465.92 624.46,466.23 624.35,466.14 			"/>
			<polygon class="st50" points="657.25,453.77 633.73,418.05 634.06,417.43 652.75,417.43 			"/>
			<polygon class="st50" points="634.06,417.43 633.73,418.05 633.63,417.9 633.82,417.43 			"/>
			<polygon class="st51" points="658.68,454.08 657.72,454.48 657.36,454.63 637.73,462.86 625.28,465.92 624.35,466.14 
				624.46,466.23 618.18,468.65 607.99,459.25 612.12,455.11 613.22,455.93 614.68,453.23 657.29,454.05 657.44,454.05 			"/>
			<path class="st52" d="M653.82,575.13c0.23,0.01,0.45,0.02,0.69,0.02c3.02,0,5.73-1.31,7.59-3.39l-4.05-5.07L653.82,575.13z"/>
			<path class="st53" d="M662.24,558.29c-1.87-2.17-4.64-3.55-7.74-3.55c-1.81,0-3.51,0.47-4.97,1.3l8.51,10.65L662.24,558.29z"/>
			<path class="st54" d="M662.24,558.29l-4.2,8.4l4.05,5.07c1.63-1.81,2.62-4.19,2.62-6.82c0-1.67-0.4-3.25-1.11-4.64
				C663.22,559.58,662.77,558.9,662.24,558.29z"/>
			<path class="st53" d="M654.5,551.02c3.66,0,7,1.42,9.49,3.75l3.27-6.53h-23.95l3.89,4.86
				C649.32,551.78,651.82,551.02,654.5,551.02z"/>
			<path class="st54" d="M667.62,560.3h5.9c1.67,0,3.17-0.68,4.27-1.76c1.09-1.09,1.76-2.6,1.76-4.27c0-3.33-2.7-6.03-6.03-6.03
				h-6.26l-3.27,6.53C665.62,556.27,666.88,558.17,667.62,560.3z"/>
			<path class="st55" d="M582.15,555.86l-13,14.95c1.85,2.63,4.9,4.34,8.35,4.34c5.64,0,10.2-4.56,10.2-10.2
				c0-1.67-0.4-3.25-1.11-4.64C585.62,558.39,584.06,556.83,582.15,555.86z"/>
			<path class="st56" d="M544.45,551.83l25.27,1.58c2.22-1.51,4.91-2.38,7.78-2.38c6.06,0,11.22,3.88,13.12,9.28h2.7l8.77-12.06
				h-40.36l-17.81,2.54L544.45,551.83z"/>
			<path class="st57" d="M568.65,461.05c0.51-19.21,16.49-34.37,35.69-33.86s34.37,16.49,33.86,35.69
				c-0.15,5.85-1.75,11.33-4.43,16.1l2.72,2.71c3.28-5.49,5.25-11.86,5.43-18.71c0.56-21.26-16.22-38.94-37.47-39.5
				s-38.94,16.22-39.5,37.47c-0.4,15.24,8.11,28.65,20.8,35.22l0.96-3.71C575.65,486.39,568.3,474.51,568.65,461.05z"/>
			<path class="st57" d="M589.19,478.66c-4.82-4.15-7.88-10.3-7.88-17.16c0-12.5,10.13-22.63,22.63-22.63s22.63,10.13,22.63,22.63
				c0,3.56-0.83,6.93-2.29,9.93l2.53,2.39c1.98-3.67,3.11-7.86,3.11-12.32c0-14.35-11.63-25.98-25.98-25.98
				c-14.35,0-25.98,11.63-25.98,25.98c0,8.5,4.08,16.04,10.39,20.78L589.19,478.66L589.19,478.66z"/>
		</g>
		<g>
			<path d="M858.67,586.77c-1.36-0.3-2.74-0.55-4.13-0.75c-1.37-0.2-2.76-0.36-4.16-0.46c-1.65-0.14-3.32-0.2-5.01-0.2H354.62
				c-1.69,0-3.36,0.06-5.01,0.2c-1.4,0.1-2.78,0.26-4.16,0.46c-1.39,0.2-2.76,0.45-4.13,0.75C313.16,592.88,292,618,292,647.97
				c0,34.53,28.09,62.62,62.62,62.62h490.76c34.53,0,62.62-28.09,62.62-62.62C908,618,886.84,592.88,858.67,586.77z M845.38,702.24
				H354.62c-29.93,0-54.27-24.34-54.27-54.27c0-0.46,0.01-0.94,0.02-1.4c0.02-0.79,0.06-1.58,0.11-2.36
				c0.02-0.34,0.05-0.69,0.08-1.03c0.03-0.34,0.06-0.7,0.1-1.04c0.04-0.36,0.07-0.72,0.12-1.09c0.11-0.85,0.24-1.71,0.39-2.54
				c0.21-1.22,0.46-2.42,0.76-3.6c0.07-0.31,0.16-0.61,0.24-0.92c0.34-1.29,0.73-2.56,1.17-3.81c0.09-0.29,0.19-0.58,0.31-0.86
				c0.12-0.35,0.26-0.71,0.39-1.05c0.11-0.28,0.22-0.55,0.33-0.82c0.14-0.35,0.29-0.71,0.45-1.05c0.15-0.35,0.31-0.7,0.46-1.04
				c0.82-1.79,1.73-3.53,2.75-5.21c0.16-0.26,0.32-0.51,0.47-0.77c0.79-1.27,1.63-2.51,2.53-3.72c0.22-0.31,0.45-0.6,0.69-0.9
				c0.22-0.3,0.46-0.59,0.7-0.88c0.23-0.29,0.47-0.58,0.71-0.86c0.24-0.29,0.49-0.58,0.73-0.85c0.74-0.84,1.51-1.67,2.3-2.46
				c0.27-0.27,0.54-0.53,0.81-0.79c0.27-0.26,0.54-0.52,0.82-0.78c0.25-0.22,0.5-0.45,0.75-0.69c0.31-0.27,0.61-0.54,0.93-0.8
				c0.28-0.25,0.57-0.48,0.86-0.72c0.29-0.24,0.58-0.47,0.87-0.71c0.56-0.44,1.12-0.86,1.7-1.26c0.33-0.26,0.68-0.5,1.03-0.73
				c0.29-0.19,0.58-0.4,0.86-0.58c1.28-0.84,2.59-1.64,3.94-2.37c0.3-0.17,0.6-0.32,0.91-0.49c0.74-0.39,1.5-0.76,2.27-1.11
				c0.3-0.14,0.59-0.27,0.89-0.4c0.34-0.16,0.7-0.31,1.05-0.45c1.05-0.44,2.12-0.84,3.2-1.21c0.72-0.25,1.46-0.48,2.19-0.71
				c0.37-0.1,0.74-0.21,1.11-0.32s0.74-0.19,1.11-0.29c0.38-0.09,0.75-0.19,1.13-0.27c0.34-0.08,0.69-0.16,1.02-0.22
				c0.2-0.05,0.4-0.08,0.59-0.12c0.27-0.06,0.54-0.1,0.81-0.15c0.43-0.07,0.85-0.15,1.29-0.21c0.14-0.03,0.28-0.05,0.42-0.06
				c0.08-0.02,0.18-0.03,0.26-0.04c0.6-0.08,1.21-0.17,1.81-0.22c0.35-0.04,0.7-0.07,1.05-0.1c0.33-0.04,0.68-0.06,1.01-0.08h0.04
				c0.02-0.01,0.05-0.01,0.07,0c0.58-0.05,1.16-0.07,1.73-0.09c0.02,0,0.04-0.01,0.06,0c0.62-0.03,1.23-0.04,1.86-0.04h490.76
				c0.62,0,1.23,0.01,1.86,0.04c0.02-0.01,0.04,0,0.06,0c0.58,0.02,1.16,0.05,1.73,0.09c0.03-0.01,0.06-0.01,0.07,0h0.04
				c0.33,0.03,0.68,0.05,1.01,0.08c0.35,0.03,0.7,0.06,1.05,0.1c0.61,0.06,1.21,0.13,1.81,0.22c0.08,0.01,0.18,0.02,0.26,0.04
				c0.14,0.02,0.28,0.04,0.42,0.06c0.44,0.06,0.86,0.14,1.29,0.21c0.27,0.05,0.54,0.09,0.81,0.15c0.19,0.04,0.39,0.07,0.59,0.12
				c0.33,0.06,0.68,0.14,1.02,0.22c0.38,0.08,0.75,0.18,1.13,0.27c0.37,0.09,0.74,0.19,1.11,0.29s0.74,0.21,1.11,0.32
				c0.73,0.22,1.47,0.45,2.19,0.71c1.09,0.36,2.15,0.77,3.2,1.21c0.35,0.15,0.71,0.3,1.05,0.45c0.3,0.13,0.59,0.26,0.89,0.4
				c0.77,0.35,1.53,0.72,2.27,1.11c0.31,0.17,0.61,0.32,0.91,0.49c1.35,0.72,2.66,1.52,3.94,2.37c0.29,0.19,0.58,0.39,0.86,0.58
				c0.35,0.23,0.7,0.47,1.03,0.73c0.58,0.4,1.14,0.83,1.7,1.26c0.3,0.23,0.58,0.46,0.87,0.71c0.3,0.24,0.58,0.47,0.86,0.72
				c0.32,0.26,0.62,0.53,0.93,0.8c0.25,0.23,0.5,0.46,0.75,0.69c0.28,0.26,0.55,0.52,0.82,0.78c0.27,0.25,0.55,0.52,0.81,0.79
				c0.8,0.8,1.57,1.61,2.3,2.46c0.24,0.28,0.49,0.57,0.73,0.85c0.24,0.28,0.48,0.58,0.71,0.86s0.47,0.58,0.7,0.88
				c0.23,0.3,0.46,0.59,0.69,0.9c0.9,1.21,1.74,2.45,2.53,3.72c0.16,0.26,0.32,0.51,0.47,0.77c1.01,1.69,1.93,3.42,2.75,5.21
				c0.16,0.34,0.32,0.69,0.46,1.04c0.16,0.34,0.31,0.7,0.45,1.05c0.11,0.27,0.22,0.54,0.33,0.82c0.13,0.34,0.27,0.7,0.39,1.05
				c0.11,0.29,0.21,0.58,0.31,0.86c0.44,1.25,0.83,2.52,1.17,3.81c0.08,0.31,0.17,0.61,0.24,0.92c0.3,1.18,0.55,2.38,0.76,3.6
				c0.15,0.83,0.28,1.69,0.39,2.54c0.05,0.36,0.08,0.72,0.12,1.09c0.05,0.34,0.07,0.7,0.1,1.04c0.04,0.34,0.06,0.69,0.08,1.03
				c0.06,0.78,0.09,1.57,0.11,2.36c0.01,0.46,0.02,0.94,0.02,1.4C899.65,677.9,875.31,702.24,845.38,702.24z"/>
			<path class="st0" d="M899.65,647.97c0,29.93-24.34,54.27-54.27,54.27H354.62c-29.93,0-54.27-24.34-54.27-54.27
				c0-0.46,0.01-0.94,0.02-1.4c0.02-0.79,0.06-1.58,0.11-2.36c0.02-0.34,0.05-0.69,0.08-1.03c0.03-0.34,0.06-0.7,0.1-1.04
				c0.04-0.36,0.07-0.72,0.12-1.09c0.11-0.85,0.24-1.71,0.39-2.54c0.21-1.22,0.46-2.42,0.76-3.6c0.07-0.31,0.16-0.61,0.24-0.92
				c0.34-1.29,0.73-2.56,1.17-3.81c0.09-0.29,0.19-0.58,0.31-0.86c0.12-0.35,0.26-0.71,0.39-1.05c0.11-0.28,0.22-0.55,0.33-0.82
				c0.14-0.35,0.29-0.71,0.45-1.05c0.15-0.35,0.31-0.7,0.46-1.04c0.82-1.79,1.73-3.53,2.75-5.21c0.16-0.26,0.32-0.51,0.47-0.77
				c0.79-1.27,1.63-2.51,2.53-3.72c0.22-0.31,0.45-0.6,0.69-0.9c0.22-0.3,0.46-0.59,0.7-0.88c0.23-0.29,0.47-0.58,0.71-0.86
				c0.24-0.29,0.49-0.58,0.73-0.85c0.74-0.84,1.51-1.67,2.3-2.46c0.27-0.27,0.54-0.53,0.81-0.79c0.27-0.26,0.54-0.52,0.82-0.78
				c0.25-0.22,0.5-0.45,0.75-0.69c0.31-0.27,0.61-0.54,0.93-0.8c0.28-0.25,0.57-0.48,0.86-0.72c0.29-0.24,0.58-0.47,0.87-0.71
				c0.56-0.44,1.12-0.86,1.7-1.26c0.33-0.26,0.68-0.5,1.03-0.73c0.29-0.19,0.58-0.4,0.86-0.58c1.28-0.84,2.59-1.64,3.94-2.37
				c0.3-0.17,0.6-0.32,0.91-0.49c0.74-0.39,1.5-0.76,2.27-1.11c0.3-0.14,0.59-0.27,0.89-0.4c0.34-0.16,0.7-0.31,1.05-0.45
				c1.05-0.44,2.12-0.84,3.2-1.21c0.72-0.25,1.46-0.48,2.19-0.71c0.37-0.1,0.74-0.21,1.11-0.32s0.74-0.19,1.11-0.29
				c0.38-0.09,0.75-0.19,1.13-0.27c0.34-0.08,0.69-0.16,1.02-0.22c0.2-0.05,0.4-0.08,0.59-0.12c0.27-0.06,0.54-0.1,0.81-0.15
				c0.43-0.07,0.85-0.15,1.29-0.21c0.14-0.03,0.28-0.05,0.42-0.06c0.08-0.02,0.18-0.03,0.26-0.04c0.6-0.08,1.21-0.17,1.81-0.22
				c0.35-0.04,0.7-0.07,1.05-0.1c0.33-0.04,0.68-0.06,1.01-0.08h0.04c0.02-0.01,0.05-0.01,0.07,0c0.58-0.05,1.16-0.07,1.73-0.09
				c0.02,0,0.04-0.01,0.06,0c0.62-0.03,1.23-0.04,1.86-0.04h490.76c0.62,0,1.23,0.01,1.86,0.04c0.02-0.01,0.04,0,0.06,0
				c0.58,0.02,1.16,0.05,1.73,0.09c0.03-0.01,0.06-0.01,0.07,0h0.04c0.33,0.03,0.68,0.05,1.01,0.08c0.35,0.03,0.7,0.06,1.05,0.1
				c0.61,0.06,1.21,0.13,1.81,0.22c0.08,0.01,0.18,0.02,0.26,0.04c0.14,0.02,0.28,0.04,0.42,0.06c0.44,0.06,0.86,0.14,1.29,0.21
				c0.27,0.05,0.54,0.09,0.81,0.15c0.19,0.04,0.39,0.07,0.59,0.12c0.33,0.06,0.68,0.14,1.02,0.22c0.38,0.08,0.75,0.18,1.13,0.27
				c0.37,0.09,0.74,0.19,1.11,0.29s0.74,0.21,1.11,0.32c0.73,0.22,1.47,0.45,2.19,0.71c1.09,0.36,2.15,0.77,3.2,1.21
				c0.35,0.15,0.71,0.3,1.05,0.45c0.3,0.13,0.59,0.26,0.89,0.4c0.77,0.35,1.53,0.72,2.27,1.11c0.31,0.17,0.61,0.32,0.91,0.49
				c1.35,0.72,2.66,1.52,3.94,2.37c0.29,0.19,0.58,0.39,0.86,0.58c0.35,0.23,0.7,0.47,1.03,0.73c0.58,0.4,1.14,0.83,1.7,1.26
				c0.3,0.23,0.58,0.46,0.87,0.71c0.3,0.24,0.58,0.47,0.86,0.72c0.32,0.26,0.62,0.53,0.93,0.8c0.25,0.23,0.5,0.46,0.75,0.69
				c0.28,0.26,0.55,0.52,0.82,0.78c0.27,0.25,0.55,0.52,0.81,0.79c0.8,0.8,1.57,1.61,2.3,2.46c0.24,0.28,0.49,0.57,0.73,0.85
				c0.24,0.28,0.48,0.58,0.71,0.86s0.47,0.58,0.7,0.88c0.23,0.3,0.46,0.59,0.69,0.9c0.9,1.21,1.74,2.45,2.53,3.72
				c0.16,0.26,0.32,0.51,0.47,0.77c1.01,1.69,1.93,3.42,2.75,5.21c0.16,0.34,0.32,0.69,0.46,1.04c0.16,0.34,0.31,0.7,0.45,1.05
				c0.11,0.27,0.22,0.54,0.33,0.82c0.13,0.34,0.27,0.7,0.39,1.05c0.11,0.29,0.21,0.58,0.31,0.86c0.44,1.25,0.83,2.52,1.17,3.81
				c0.08,0.31,0.17,0.61,0.24,0.92c0.3,1.18,0.55,2.38,0.76,3.6c0.15,0.83,0.28,1.69,0.39,2.54c0.05,0.36,0.08,0.72,0.12,1.09
				c0.05,0.34,0.07,0.7,0.1,1.04c0.04,0.34,0.06,0.69,0.08,1.03c0.06,0.78,0.09,1.57,0.11,2.36
				C899.64,647.03,899.65,647.51,899.65,647.97z"/>
		</g>
	</g>
	<text transform="matrix(1 0 0 1 325.9771 676.8125)"><tspan x="0" y="0" class="st58 st59 st60">Compare</tspan><tspan x="370.68" y="0" class="st61 st59 st60">Cart</tspan></text>
</g>
</svg>
